<svg id="Layer_1" data-name="Layer 1" xmlns="http://www.w3.org/2000/svg" viewBox="0 0 242.84 125.16"><defs><style>.cls-1{opacity:0.1;}.cls-2{fill:#726c5f;}.cls-10,.cls-13,.cls-2,.cls-3,.cls-4,.cls-5,.cls-8,.cls-9{fill-rule:evenodd;}.cls-3{fill:#a89d85;stroke:#736d60;}.cls-20,.cls-21,.cls-3,.cls-6{stroke-miterlimit:10;}.cls-4{fill:#615684;}.cls-5{fill:#41487e;}.cls-6{fill:#fff;stroke:#000;stroke-width:0.21px;}.cls-10,.cls-6{opacity:0.5;}.cls-7{fill:#050606;}.cls-8{fill:#1d74b1;}.cls-9{fill:#4097d3;}.cls-10{fill:#736d60;}.cls-11{fill:#f6f3af;}.cls-12{fill:#d8d69e;}.cls-13{fill:#d6d4d0;}.cls-14{fill:#434343;}.cls-15{fill:#b1def3;}.cls-16{fill:#9dc4d1;}.cls-17{fill:#ce2427;}.cls-18{opacity:0.2;}.cls-19{fill:#c4c6c6;}.cls-20{fill:none;stroke:#878485;stroke-width:0.5px;}.cls-21{fill:#f4f4f5;stroke:#ddd;stroke-width:0.25px;}.cls-22{fill:#e6d0c3;}.cls-23{fill:#ddc643;}.cls-24{fill:#d3b845;}.cls-25{fill:#ebd568;}.cls-26{fill:#474748;}</style></defs><title>Artboard 1</title><ellipse class="cls-1" cx="121.33" cy="99.83" rx="110.22" ry="21"/><path class="cls-2" d="M2 21.5L3 56s46.93-30.94 119.46-30.94S241 55 241 55V21.5S189.93 0 122.46 0 2 21.5 2 21.5z"/><path class="cls-3" d="M242.34 57.07a3.57 3.57 0 0 1-1.1 2.18c-6.24 8.15-25.5 13.4-48.6 18.55-25.47 5.67-36.33 6.28-36.33 6.28V50.19s9.39.18 36.3-6.27c22.73-5.46 38.9-9.49 46.87-21.48.93-1.4 2.87.38 2.87 2.19zM.5 57.07a3.57 3.57 0 0 0 1.1 2.18c6.25 8.15 25.51 13.4 48.6 18.55 25.47 5.67 36.33 6.28 36.33 6.28V50.19s-9.39.18-36.3-6.27c-22.73-5.46-38.9-9.5-46.86-21.48C2.44 21 .5 22.82.5 24.62z"/><path class="cls-4" d="M112.8 86.17a8.36 8.36 0 0 1-3.62-6.89V32.33l-29.32 4.89V47a4.89 4.89 0 0 1 4.89 4.89v40.29a18.26 18.26 0 0 0 7.73 13.73l.65.43h.08l28.14 18.77v-33l-.11-.08z"/><path class="cls-5" d="M133.61 32.33V79.27a8.36 8.36 0 0 1-3.61 6.89l-8.59 6v33l28.14-18.77h.08l.65-.43A18.26 18.26 0 0 0 158 92.18V51.87a4.89 4.89 0 0 1 4.92-4.87v-9.78z"/><circle class="cls-6" cx="96.54" cy="47.01" r="6.44"/><circle class="cls-7" cx="96.56" cy="46.99" r="4.03"/><circle class="cls-6" cx="145.82" cy="47.01" r="6.44"/><circle class="cls-7" cx="145.84" cy="46.99" r="4.03"/><circle class="cls-6" cx="99.68" cy="93.03" r="6.44"/><circle class="cls-7" cx="99.69" cy="93.01" r="4.03"/><circle class="cls-6" cx="142.69" cy="93.03" r="6.44"/><circle class="cls-7" cx="142.7" cy="93.01" r="4.03"/><path class="cls-8" d="M144.69 89.77a6 6 0 0 1-1.69 3.59 4.94 4.94 0 0 1-3.69 1.39l-44.63-44.4a5.06 5.06 0 0 1 1.86-4c2.08-2 3.33-1.24 3.33-1.24z"/><path class="cls-9" d="M103.16 95.11a6 6 0 0 1-3.59-1.71 4.94 4.94 0 0 1-1.39-3.69l44.4-44.61a5.06 5.06 0 0 1 4 1.86c2 2.08 1.24 3.33 1.24 3.33z"/><path class="cls-10" d="M171.5 60.5s16.88-3.49 31.25-7.19a136.06 136.06 0 0 0 24.56-8.81l-4.47 11.19-38 7.81z"/><path class="cls-11" d="M225.26 35.8l1.92 30.03-23.73 2.92-2.95-31.97 24.76-.98z"/><path class="cls-12" d="M198.23 40.41l2.27-3.63 2.95 31.97-2.58 1.56-2.64-29.9z"/><path class="cls-13" d="M192.37 51.75l-.47 16.74-2.46 1.18-2.66-1.48.81-16.81 2.57-.8 2.21 1.17z"/><path class="cls-14" d="M192.74 36.43l-.21 15.32a.27.27 0 0 1-.05.16c-.15.2-.72.69-2.54.62s-2.38-.78-2.49-1a.27.27 0 0 1 0-.15l.38-3.48a4.44 4.44 0 0 1-1-3.18c0-1.23.33-4.63.33-4.63a1.18 1.18 0 0 1 .82-1l.86-.27.28-2.53a1.18 1.18 0 0 1 1.22-1.05h1.29a1.18 1.18 0 0 1 1.11 1.19z"/><path class="cls-15" d="M215.69 38.88l10.85 28.07-21.74 9.92-12.43-29.6 23.32-8.39z"/><path class="cls-16" d="M191.29 51.41l1.08-4.14 12.43 29.6-2 2.26-11.51-27.72z"/><path class="cls-13" d="M173.13 55.61l5.81 15.7 2.72.34 2.04-2.25-6.16-15.67-2.68.07-1.73 1.81z"/><path class="cls-14" d="M167.88 41.22L173 55.67a.27.27 0 0 0 .1.14c.21.14.9.42 2.6-.23s2-1.5 2-1.76a.27.27 0 0 0 0-.15l-1.48-3.17a4.44 4.44 0 0 0-.07-3.34c-.44-1.15-1.79-4.28-1.79-4.28a1.18 1.18 0 0 0-1.11-.73h-.91l-1.07-2.31a1.18 1.18 0 0 0-1.49-.61l-1.21.46a1.18 1.18 0 0 0-.69 1.53z"/><path class="cls-13" d="M180.08 54.11l2.74 16.52 2.59.84 2.44-1.82-3.08-16.55-2.65-.45-2.04 1.46z"/><path class="cls-17" d="M177.65 39l2.28 15.15a.27.27 0 0 0 .07.15c.18.17.81.58 2.6.27s2.25-1.09 2.33-1.34a.27.27 0 0 0 0-.15l-.85-3.39a4.44 4.44 0 0 0 .57-3.29c-.21-1.22-1-4.54-1-4.54a1.18 1.18 0 0 0-1-.92l-.89-.15-.62-2.47a1.18 1.18 0 0 0-1.35-.88l-1.27.22a1.18 1.18 0 0 0-.87 1.34z"/><path class="cls-3" d="M228.23 85.32a2.39 2.39 0 0 1-.73 1.46c-4.19 5.47-17.09 9-32.57 12.43-11.27 2.51-17.68 3.54-20.74 3.95a2 2 0 0 1-2.26-2 141.56 141.56 0 0 0 1-19.17c-.26-9.49-1-21.29-1-21.29s24.51-1.48 33-4.2c14.92-4.76 17.87-8.9 21.36-11.4.92-.65 3.38 0 3.38 1.26a76.57 76.57 0 0 1 1.68 21.09 89.24 89.24 0 0 1-3.12 17.87z"/><path class="cls-10" d="M72.54 61.35s-16.88-3.49-31.25-7.19a136.06 136.06 0 0 1-24.56-8.81l4.47 11.19 38 7.81z"/><path class="cls-18" d="M37.43 92.22l-9.87 1.59L17.59 34l10.88 4.75 8.96 53.47z"/><path class="cls-19" d="M14.448 18.944l9.872-1.595 11.965 74.038-9.872 1.595z"/><path class="cls-20" d="M29.98 52.4l-4.05.65M29.03 46.47l-4.05.66M28.07 40.55l-4.05.65M27.11 34.63l-4.05.65M26.15 28.7l-4.05.66M25.2 22.78l-4.05.65"/><path class="cls-21" d="M23.913 37.377l26.234-.917 1.525 43.674-26.234.916z"/><path class="cls-21" d="M27.05 35.68l26.245.458-.762 43.693-26.246-.457z"/><path class="cls-1" d="M54.22 88.01L28 86.63l7.32-45.75 21.34 4.35-2.44 42.78z"/><path class="cls-21" d="M29.836 38.218l26.214 1.374-2.287 43.64-26.214-1.374z"/><path class="cls-22" d="M51.72 48.71l.1.87 4.47-.55-.11-.87-3.1-6.79-1.36 7.34z"/><path class="cls-23" d="M60.49 95.56l-1.49.19-5.77-47.04.62-1.09.87.9 5.77 47.04z"/><path class="cls-24" d="M61.98 95.38l-1.49.18-5.77-47.04.62-1.08.86.9 5.78 47.04z"/><path class="cls-25" d="M59 95.75l-1.49.18-5.77-47.04.62-1.08.87.9L59 95.75z"/><path class="cls-26" d="M53.08 41.37l-.41 2.2a2.37 2.37 0 0 0 1.33-.14z"/><path class="cls-22" d="M59.53 50.21l-.01.87 4.5.08.01-.87-2.12-7.16-2.38 7.08z"/><path class="cls-23" d="M61.7 97.83l-1.5-.03.83-47.39.77-.98.73 1.01-.83 47.39z"/><path class="cls-24" d="M63.2 97.85l-1.5-.02.83-47.39.77-.99.73 1.02-.83 47.38z"/><path class="cls-25" d="M60.2 97.8l-1.5-.03.83-47.38.77-.99.73 1.01-.83 47.39z"/><path class="cls-26" d="M61.91 43.12l-.71 2.13a2.37 2.37 0 0 0 1.36 0z"/><path class="cls-22" d="M66.66 49.13l-.1.87 4.46.55.11-.87-1.37-7.35-3.1 6.8z"/><path class="cls-23" d="M63.84 96.71l-1.49-.18 5.78-47.04.87-.9.62 1.08-5.78 47.04z"/><path class="cls-24" d="M65.33 96.89l-1.49-.18 5.78-47.04.86-.9.63 1.08-5.78 47.04z"/><path class="cls-25" d="M62.35 96.53l-1.49-.18 5.78-47.04.87-.91.62 1.09-5.78 47.04z"/><path class="cls-26" d="M69.76 42.33l-.93 2a2.37 2.37 0 0 0 1.34.19z"/><path class="cls-3" d="M15.81 86.17a2.39 2.39 0 0 0 .73 1.46c4.19 5.47 17.09 9 32.57 12.43 11.27 2.51 17.68 3.54 20.74 3.95a2 2 0 0 0 2.26-2 141.56 141.56 0 0 1-1-19.17c.26-9.49 1-21.29 1-21.29s-24.51-1.48-33-4.2C24.17 52.6 21.23 48.46 17.73 46c-.92-.65-3.38 0-3.38 1.26a76.57 76.57 0 0 0-1.68 21.09 89.24 89.24 0 0 0 3.14 17.82z"/></svg>